<?xml version="1.0" encoding="utf-8"?>
<!-- Generator: Adobe Illustrator 25.4.1, SVG Export Plug-In . SVG Version: 6.00 Build 0)  -->
<svg version="1.1" id="Layer_1" xmlns="http://www.w3.org/2000/svg" xmlns:xlink="http://www.w3.org/1999/xlink" x="0px" y="0px"
	 viewBox="0 0 200 200" enable-background="new 0 0 200 200" xml:space="preserve">
<g>
	<path fill="#3655A5" d="M100.62,176.73c-40.04,0-72.62-32.58-72.62-72.62S60.58,31.5,100.62,31.5s72.62,32.58,72.62,72.62
		S140.66,176.73,100.62,176.73z M100.62,35.04c-38.09,0-69.07,30.99-69.07,69.07s30.99,69.07,69.07,69.07
		c38.09,0,69.07-30.99,69.07-69.07S138.7,35.04,100.62,35.04z"/>
	<g>
		<path fill="#3655A5" d="M105.46,144.39l-12.06,0c-2.58,0-3.89-1.3-3.89-3.87l0-30.15l-8.02,0c-2.42,0-3.75-1.33-3.76-3.75
			c-0.01-4.02-0.01-8.04,0-12.06c0.01-2.38,1.38-3.75,3.77-3.76l8.01,0L89.5,88.8c-0.01-2.22-0.03-4.43,0.07-6.65
			c0.22-5.2,1.91-9.61,5.02-13.1c2.66-2.99,6.17-4.96,10.45-5.84c0.63-0.13,1.27-0.24,1.91-0.34l0.84-0.14l13-0.02l0.31,0.12
			c0.91,0.36,2.43,1.33,2.4,3.75c-0.02,2.33-0.02,4.67-0.01,7.01v3.96c0,1.73-0.67,3.79-3.84,3.82l-1.95,0.02
			c-1.93,0.01-3.85,0.02-5.78,0.1c-1.53,0.06-1.81,0.61-1.94,0.88c-0.25,0.49-0.39,1.01-0.4,1.43c-0.05,2.1-0.04,4.2-0.03,6.34
			l0,0.66h9.57c2.54,0.01,3.88,1.35,3.88,3.88l0,11.91c-0.01,2.44-1.36,3.78-3.8,3.78l-9.68,0v29.94
			C109.54,143.09,108.24,144.38,105.46,144.39z M93.07,140.83c0.08,0.01,0.19,0.01,0.33,0.01l12.06,0c0.24,0,0.4-0.01,0.51-0.02
			c0.01-0.11,0.02-0.28,0.02-0.52v-33.48l13.21,0c0.1,0,0.19,0,0.25-0.01c0.01-0.06,0.01-0.14,0.01-0.24l0-11.9
			c0-0.15-0.01-0.26-0.01-0.34c-0.09,0-0.19,0-0.33,0h-13.1l-0.01-4.19c-0.01-2.18-0.01-4.31,0.03-6.43
			c0.02-0.93,0.3-1.98,0.77-2.93c0.89-1.78,2.56-2.73,4.96-2.83c1.96-0.08,3.93-0.09,5.89-0.1l1.94-0.02c0.13,0,0.24-0.01,0.32-0.01
			c0.01-0.07,0.01-0.16,0.01-0.27v-3.95c0-2.35-0.01-4.7,0.01-7.05c0-0.15-0.01-0.25-0.02-0.3l-12.42,0.12
			c-0.59,0.1-1.18,0.19-1.76,0.31c-3.56,0.74-6.35,2.29-8.52,4.73c-2.59,2.91-3.94,6.48-4.13,10.9c-0.09,2.16-0.08,4.31-0.07,6.47
			l0.01,5.55l-11.55,0c-0.09,0-0.17,0-0.23,0.01c0,0.05,0,0.12,0,0.21c-0.01,4.01-0.01,8.03,0,12.05c0,0.09,0,0.16,0.01,0.21
			c0.04-0.01,0.12,0,0.21,0l11.56,0l0,33.69C93.05,140.65,93.06,140.75,93.07,140.83z"/>
	</g>
</g>
</svg>
