<?xml version="1.0" encoding="utf-8"?>
<!-- Generator: Adobe Illustrator 25.4.1, SVG Export Plug-In . SVG Version: 6.00 Build 0)  -->
<svg version="1.1" id="Layer_1" xmlns="http://www.w3.org/2000/svg" xmlns:xlink="http://www.w3.org/1999/xlink" x="0px" y="0px"
	 viewBox="0 0 200 200" enable-background="new 0 0 200 200" xml:space="preserve">
<g>
	<path fill="#FFFFFF" d="M101.31,186.77c-47.6,0-86.32-38.72-86.32-86.32s38.72-86.32,86.32-86.32s86.32,38.72,86.32,86.32
		S148.91,186.77,101.31,186.77z M101.31,17.97c-45.48,0-82.48,37-82.48,82.48s37,82.48,82.48,82.48s82.48-37,82.48-82.48
		S146.79,17.97,101.31,17.97z"/>
	<g>
		<path fill="#FFFFFF" d="M63.45,108.12c-5.02,0-9.11,4.09-9.11,9.11c0,5.02,4.09,9.11,9.11,9.11s9.11-4.09,9.11-9.11
			C72.56,112.21,68.48,108.12,63.45,108.12z M63.45,124.35c-3.93,0-7.12-3.19-7.12-7.12c0-3.93,3.19-7.12,7.12-7.12
			s7.12,3.19,7.12,7.12C70.57,121.16,67.38,124.35,63.45,124.35z"/>
		<path fill="#FFFFFF" d="M143.45,108.12c-5.02,0-9.11,4.09-9.11,9.11c0,5.02,4.09,9.11,9.11,9.11s9.11-4.09,9.11-9.11
			C152.56,112.21,148.47,108.12,143.45,108.12z M143.45,124.35c-3.93,0-7.12-3.19-7.12-7.12c0-3.93,3.19-7.12,7.12-7.12
			s7.12,3.19,7.12,7.12C150.57,121.16,147.38,124.35,143.45,124.35z"/>
		<path fill="#FFFFFF" d="M143.45,96.42c-2.2,0-4.32,0.35-6.32,0.99l-5.87-15.92c10.26-2.29,21.95-0.86,22.07-0.84l0.25-1.97
			c-0.51-0.06-12.36-1.51-23.02,0.93l-8.08-21.92h-13.8v1.99h12.42l2.17,5.89c-7.91,4.85-20.15,11.7-23.22,11.48
			c-4.57-0.2-44.94-3.59-45.35-3.63l-0.81-0.07l-0.23,0.77c-0.04,0.14-0.98,3.39,0.76,6.51c1.23,2.21,3.44,3.76,6.59,4.62
			c1.82,0.5,3.89,1.01,6.07,1.55c7.45,1.84,16.56,4.1,19.92,6.88l-10.03,7.76c-3.64-3.12-8.36-5.02-13.52-5.02
			c-11.47,0-20.81,9.33-20.81,20.81s9.33,20.81,20.81,20.81s20.81-9.33,20.81-20.81c0-1.29-0.13-2.56-0.36-3.79l12.24-4.15h14.76
			h0.72l0.23-0.68c0.08-0.24,7.73-22.99,17.49-26.61l5.94,16.1c-7.42,3.18-12.63,10.56-12.63,19.13c0,11.47,9.33,20.81,20.81,20.81
			s20.81-9.33,20.81-20.81S154.92,96.42,143.45,96.42z M63.45,136.05c-10.38,0-18.82-8.44-18.82-18.82s8.44-18.82,18.82-18.82
			s18.82,8.44,18.82,18.82S73.83,136.05,63.45,136.05z M79.13,102.29l9.19-7.11c2.55,3.58,5.33,10.07,6.33,12.52l-10.15,3.44
			L79.13,102.29z M110.19,107.3H96.65c-0.95-2.34-4.33-10.41-7.36-14.16c-2.94-3.63-12.92-6.1-21.72-8.28
			c-2.16-0.53-4.22-1.04-6.02-1.54c-2.6-0.71-4.4-1.94-5.36-3.65c-0.89-1.58-0.87-3.26-0.75-4.21c6.15,0.52,40.25,3.37,44.53,3.56
			c0.05,0,0.09,0,0.14,0c4.53,0,19.52-8.92,23.87-11.57l4.69,12.71C118.87,83.84,111.59,103.31,110.19,107.3z M143.45,136.05
			c-10.38,0-18.82-8.44-18.82-18.82s8.44-18.82,18.82-18.82s18.82,8.44,18.82,18.82S153.83,136.05,143.45,136.05z"/>
	</g>
</g>
</svg>
