<?xml version="1.0" encoding="utf-8"?>
<!-- Generator: Adobe Illustrator 25.4.1, SVG Export Plug-In . SVG Version: 6.00 Build 0)  -->
<svg version="1.1" id="Layer_1" xmlns="http://www.w3.org/2000/svg" xmlns:xlink="http://www.w3.org/1999/xlink" x="0px" y="0px"
	 viewBox="0 0 200 200" enable-background="new 0 0 200 200" xml:space="preserve">
<g>
	<path fill="#FFFFFF" d="M100.88,184.73c-47.6,0-86.32-38.72-86.32-86.32s38.72-86.32,86.32-86.32s86.32,38.72,86.32,86.32
		S148.48,184.73,100.88,184.73z M100.88,15.93c-45.48,0-82.48,37-82.48,82.48s37,82.48,82.48,82.48s82.48-37,82.48-82.48
		S146.36,15.93,100.88,15.93z"/>
	<path fill="#FFFFFF" d="M78.89,114.31c-0.46-3.7-3.64-6.55-7.45-6.55c-3.82,0-6.99,2.86-7.45,6.55c-0.06,0.32-0.08,0.64-0.08,0.98
		c0,0.34,0.02,0.66,0.08,1c0.48,3.68,3.64,6.53,7.45,6.53c3.82,0,6.97-2.86,7.45-6.53c0.06-0.34,0.08-0.66,0.08-1
		C78.97,114.95,78.95,114.63,78.89,114.31z M71.44,120.83c-2.72,0-4.98-1.96-5.44-4.54c-0.06-0.32-0.1-0.66-0.1-1
		c0-0.34,0.02-0.66,0.1-0.98c0.44-2.6,2.72-4.56,5.44-4.56s5,1.96,5.44,4.56c0.08,0.32,0.1,0.64,0.1,0.98c0,0.34-0.04,0.68-0.1,1
		C76.41,118.87,74.16,120.83,71.44,120.83z"/>
	<path fill="#FFFFFF" d="M88.38,114.31c-0.52-8.89-7.91-15.99-16.95-15.99c-9.03,0-16.43,7.09-16.94,15.99
		c-0.02,0.32-0.02,0.66-0.02,0.98c0,0.34,0,0.66,0.02,1c0.52,8.89,7.93,15.97,16.94,15.97s16.43-7.07,16.95-15.97
		c0.02-0.34,0.02-0.66,0.02-1C88.4,114.97,88.4,114.63,88.38,114.31z M71.44,130.26c-7.91,0-14.43-6.17-14.91-13.97
		c-0.04-0.34-0.06-0.66-0.06-1c0-0.32,0.02-0.66,0.06-0.98c0.48-7.79,6.97-13.99,14.91-13.99c7.93,0,14.43,6.19,14.91,13.99
		c0.04,0.32,0.06,0.66,0.06,0.98c0,0.34-0.02,0.66-0.06,1C85.87,124.08,79.35,130.26,71.44,130.26z"/>
	<path fill="#FFFFFF" d="M150.25,114.29c-0.48-3.68-3.64-6.53-7.45-6.53c-3.82,0-6.97,2.86-7.45,6.53c-0.06,0.34-0.08,0.66-0.08,1
		c0,0.34,0.02,0.66,0.08,1c0.48,3.68,3.64,6.53,7.45,6.53c3.82,0,6.97-2.86,7.45-6.53c0.06-0.34,0.08-0.66,0.08-1
		C150.33,114.95,150.31,114.63,150.25,114.29z M142.8,120.83c-2.72,0-4.98-1.96-5.44-4.54c-0.06-0.32-0.1-0.66-0.1-1
		c0-0.34,0.04-0.68,0.1-1c0.46-2.58,2.72-4.54,5.44-4.54c2.72,0,4.98,1.96,5.44,4.54c0.06,0.32,0.1,0.66,0.1,1
		c0,0.34-0.04,0.68-0.1,1C147.77,118.87,145.51,120.83,142.8,120.83z"/>
	<path fill="#FFFFFF" d="M159.74,114.29c-0.52-8.89-7.93-15.97-16.94-15.97s-16.43,7.07-16.94,15.97c-0.02,0.34-0.02,0.66-0.02,1
		c0,0.34,0,0.66,0.02,1c0.52,8.89,7.93,15.97,16.94,15.97s16.43-7.07,16.94-15.97c0.02-0.34,0.02-0.66,0.02-1
		C159.76,114.95,159.76,114.63,159.74,114.29z M142.8,130.26c-7.91,0-14.43-6.17-14.91-13.97c-0.04-0.34-0.06-0.66-0.06-1
		c0-0.34,0.02-0.66,0.06-1c0.48-7.79,6.99-13.97,14.91-13.97c7.91,0,14.43,6.17,14.91,13.97c0.04,0.34,0.06,0.66,0.06,1
		c0,0.34-0.02,0.66-0.06,1C157.22,124.08,150.71,130.26,142.8,130.26z"/>
	<path fill="#FFFFFF" d="M167.37,106.84c-0.02-0.64,0.34-1.32,1.04-2.02c1.94-1.92,1.48-4.04,0.92-5.02
		c-5.2-16.66-37.87-18.8-41.92-19.02c-18.64-16.81-21.26-16.77-35.57-16.75h-2.8c-15.23,0-35.51,13.41-40.3,16.73
		c-0.16,0.1-0.3,0.2-0.42,0.3c-0.12,0.08-0.24,0.16-0.32,0.22h-5.75v5.95c-0.46,0.06-1,0.24-1.56,0.64
		c-2.28,1.62-3.44,5.87-3.44,12.65c0,14.43,5.26,15.67,5.99,15.77h13.29c-0.04-0.34-0.06-0.66-0.06-1c0-0.32,0.02-0.66,0.06-0.98
		H43.44c-0.06,0-4.2-1.12-4.2-13.79c0-7.87,1.6-10.25,2.54-10.97c0.4-0.32,0.76-0.38,0.96-0.38c0.1,0,0.16,0.02,0.18,0.02l1.32,0.46
		v-6.37h4.4l0.26-0.2c0.02-0.02,0.18-0.12,0.46-0.32c0.54-0.38,1.56-1.08,2.96-2c4.5-2.92,12.87-7.99,21.6-11.35
		c0.62-0.24,1.26-0.48,1.88-0.7c4.54-1.6,9.13-2.68,13.25-2.68h2.82c13.51-0.02,15.99-0.06,32.51,14.73
		c0.64,0.56,1.28,1.14,1.96,1.76l0.28,0.24h0.4c1.4,0.08,35.65,1.84,40.44,17.74l0.12,0.26c0.12,0.22,0.74,1.36-0.58,2.66
		c-1.1,1.1-1.64,2.26-1.62,3.48c0.04,1.06,0.54,2.1,1.44,2.9c0.38,0.34,0.88,1.58,0.46,2.64c-0.58,1.54-2.78,1.86-4.52,1.86h-5.06
		c0.04,0.34,0.06,0.66,0.06,1c0,0.34-0.02,0.66-0.06,1h5.06c4.28,0,5.83-1.72,6.39-3.16c0.68-1.8,0.02-3.9-1-4.82
		C167.81,108,167.39,107.5,167.37,106.84z M76.87,114.31c0.08,0.32,0.1,0.64,0.1,0.98c0,0.34-0.04,0.68-0.1,1h2.02
		c0.06-0.34,0.08-0.66,0.08-1c0-0.34-0.02-0.66-0.08-0.98H76.87z M63.99,114.31c-0.06,0.32-0.08,0.64-0.08,0.98
		c0,0.34,0.02,0.66,0.08,1H66c-0.06-0.32-0.1-0.66-0.1-1c0-0.34,0.02-0.66,0.1-0.98H63.99z M78.89,114.31h-2.02
		c0.08,0.32,0.1,0.64,0.1,0.98c0,0.34-0.04,0.68-0.1,1h2.02c0.06-0.34,0.08-0.66,0.08-1C78.97,114.95,78.95,114.63,78.89,114.31z
		 M127.89,114.29h-2.04l-37.47,0.02h-2.04c0.04,0.32,0.06,0.66,0.06,0.98c0,0.34-0.02,0.66-0.06,1h41.54
		c-0.04-0.34-0.06-0.66-0.06-1C127.83,114.95,127.85,114.63,127.89,114.29z M137.36,114.29h-2.02c-0.06,0.34-0.08,0.66-0.08,1
		c0,0.34,0.02,0.66,0.08,1h2.02c-0.06-0.32-0.1-0.66-0.1-1C137.26,114.95,137.3,114.61,137.36,114.29z M150.25,114.29h-2.02
		c0.06,0.32,0.1,0.66,0.1,1c0,0.34-0.04,0.68-0.1,1h2.02c0.06-0.34,0.08-0.66,0.08-1C150.33,114.95,150.31,114.63,150.25,114.29z"/>
	<rect x="48.31" y="80.77" fill="#FFFFFF" width="78.69" height="2"/>
	
		<rect x="75.81" y="67.74" transform="matrix(0.9495 -0.3139 0.3139 0.9495 -19.6415 27.8995)" fill="#FFFFFF" width="2" height="14.39"/>
</g>
</svg>
