<?xml version="1.0" encoding="utf-8"?>
<!-- Generator: Adobe Illustrator 25.4.1, SVG Export Plug-In . SVG Version: 6.00 Build 0)  -->
<svg version="1.1" id="Layer_1" xmlns="http://www.w3.org/2000/svg" xmlns:xlink="http://www.w3.org/1999/xlink" x="0px" y="0px"
	 viewBox="0 0 200 200" enable-background="new 0 0 200 200" xml:space="preserve">
<g>
	<path fill="#B52025" d="M97.77,111.57c-2.84,0-5.26-0.4-7.27-1.21c-2.01-0.81-3.75-1.95-5.21-3.44c-1.46-1.49-2.91-3.82-4.32-7.01
		l5.93-3.08c1.14,2.56,2.18,4.36,3.15,5.41c0.96,1.05,2.11,1.86,3.44,2.42c1.33,0.57,2.87,0.85,4.62,0.85
		c2.77,0,4.91-0.66,6.42-1.98c1.51-1.32,2.26-2.97,2.26-4.93c0-2.05-0.81-3.67-2.44-4.85c-1.63-1.18-4.22-2.33-7.78-3.44
		c-5.33-1.68-8.97-3.61-10.93-5.77c-1.95-2.16-2.93-4.74-2.93-7.73c0-3.43,1.35-6.31,4.06-8.65c2.71-2.34,6.33-3.51,10.88-3.51
		c2.42,0,4.5,0.28,6.22,0.85c1.72,0.57,3.27,1.39,4.64,2.47c1.37,1.08,2.74,2.68,4.11,4.8l-5.24,3.61
		c-0.98-1.42-1.91-2.52-2.79-3.29c-0.87-0.77-1.86-1.37-2.97-1.77s-2.45-0.61-4.04-0.61c-2.58,0-4.55,0.54-5.93,1.61
		c-1.38,1.07-2.06,2.42-2.06,4.06c0,1.88,0.72,3.4,2.16,4.57c1.44,1.17,4.1,2.33,7.99,3.49c4.85,1.44,8.39,3.29,10.61,5.55
		c2.23,2.26,3.34,5,3.34,8.21c0,4.11-1.45,7.36-4.34,9.76C106.46,110.37,102.59,111.57,97.77,111.57z M95.57,86.67V59.22h4.95v27.45
		H95.57z M95.57,117.01V87.88h4.95v29.13H95.57z"/>
</g>
<path fill="#B52025" d="M100.2,196.26l-3.25-34.57c-45.3-1.29-81.69-32.76-81.69-71.25c0-39.31,37.95-71.3,84.59-71.3
	s84.59,31.98,84.59,71.3c0,15.86-6.04,30.86-17.47,43.39l-0.18,0.18L100.2,196.26z M99.85,25.51c-43.13,0-78.22,29.13-78.22,64.93
	s35.09,64.93,78.22,64.93h2.9l2.58,27.39l57.02-53.3c10.29-11.32,15.72-24.81,15.72-39.01C178.07,54.64,142.98,25.51,99.85,25.51z"
	/>
</svg>
